<?xml version="1.0" encoding="UTF-8"?>
<!-- Created with Inkscape (http://www.inkscape.org/) -->
<svg width="26.191mm" height="17.202mm" version="1.1" viewBox="0 0 26.191 17.202" xmlns="http://www.w3.org/2000/svg">
 <defs>
  <marker id="marker2752-06-80" overflow="visible" orient="auto">
   <path transform="scale(.8)" d="m5.77 0-8.65 5v-10z" fill="context-stroke" fill-rule="evenodd" stroke="context-stroke" stroke-width="1pt"/>
  </marker>
 </defs>
 <g transform="translate(-90.626 -128.06)">
  <g transform="translate(2.7403 -1.9247)" stroke-width=".26458">
   <path d="m87.886 129.98h5.0271v5.0271h-5.0271zm0.26458 0.26458v4.4979h4.4979v-4.4979z"/>
   <path d="m87.886 136.33h5.0271v4.7625h-5.0271zm0.26458 0.26458v4.2333h4.4979v-4.2333z"/>
   <path d="m109.05 136.33h5.0271v4.7625h-5.0271zm0.26458 0.26458v4.2333h4.4979v-4.2333z"/>
   <path d="m87.886 142.42h5.0271v4.7625h-5.0271zm0.26458 0.26458v4.2333h4.4979v-4.2333z"/>
  </g>
  <path d="m100.12 136.7c1.8673-1e-3 3.7346-3e-3 5.6019-4e-3" fill="none" marker-end="url(#marker2752-06-80)" stroke="#000" stroke-width=".443"/>
 </g>
</svg>
