<?xml version="1.0" encoding="UTF-8"?>
<!-- Created with Inkscape (http://www.inkscape.org/) -->
<svg width="13.403mm" height="3.5304mm" version="1.1" viewBox="0 0 13.403 3.5304" xmlns="http://www.w3.org/2000/svg">
 <g transform="translate(-104 -129.43)">
  <g fill="none" stroke="#000">
   <path d="m104.01 132.06c4.438-0.0234 8.8759-0.0469 13.314-0.0703" stroke-width=".12"/>
   <path d="m104.06 132.9a8.0255 7.7167 0 0 1 6.6299-3.4064 8.0255 7.7167 0 0 1 6.6535 3.3635" stroke-linecap="round" stroke-width=".12"/>
   <g transform="translate(11.334 -1.3122)">
    <path d="m94.757 132.24c-0.0059 0.37405-0.01185 0.74809-0.01778 1.1221" stroke-width=".12"/>
    <path d="m96.173 131.47c-0.0052 0.60788-0.01037 1.2158-0.01556 1.8236" stroke-width=".12"/>
    <path d="m97.687 131c-0.0051 0.7772-0.01026 1.5544-0.01539 2.3316" stroke-width=".13493"/>
    <path d="m99.336 130.74c-0.0051 0.84952-0.01021 1.699-0.01532 2.5486" stroke-width=".14076"/>
    <path d="m100.84 130.92c-5e-3 0.81215-0.0103 1.6243-0.0154 2.4364" stroke-width=".1377"/>
    <path d="m102.35 131.31c-5e-3 0.66688-0.0103 1.3338-0.0155 2.0006" stroke-width=".12531"/>
    <path d="m103.98 132.18c-6e-3 0.37405-0.0119 0.74809-0.0178 1.1221" stroke-width=".12"/>
   </g>
  </g>
 </g>
</svg>
