<?xml version="1.0" encoding="UTF-8"?>
<!-- Generator: visioncortex VTracer 0.6.3 -->
<svg version="1.1" xmlns="http://www.w3.org/2000/svg" width="214" height="93">
<path d="M0,0 L152,0 L152,1 L156,1 L156,2 L143,2 L143,3 L141,3 L141,2 L142,2 L142,1 L0,1 Z " fill="#000000" transform="translate(33,0)"/>
<path d="M0,0 L7,0 L7,1 L0,1 Z " fill="#000000" transform="translate(26,1)"/>
<path d="M0,0 L3,0 L3,1 L1,1 L1,2 L-1,2 L-1,3 L-3,3 L-3,2 L-2,2 L-2,1 L0,1 Z " fill="#000000" transform="translate(23,2)"/>
<path d="M0,0 L3,0 L3,1 L0,1 Z " fill="#000000" transform="translate(189,2)"/>
<path d="M0,0 L2,0 L2,1 L0,1 Z " fill="#000000" transform="translate(172,3)"/>
<path d="M0,0 L2,0 L2,1 L3,1 L3,2 L1,2 L1,1 L0,1 Z " fill="#000000" transform="translate(192,3)"/>
<path d="M0,0 L2,0 L2,1 L0,1 Z " fill="#000000" transform="translate(170,4)"/>
<path d="M0,0 L2,0 L2,1 L1,1 L1,2 L-1,2 L-1,1 L0,1 Z " fill="#000000" transform="translate(18,5)"/>
<path d="M0,0 L1,0 L1,1 L0,1 Z " fill="#000000" transform="translate(169,5)"/>
<path d="M0,0 L2,0 L2,1 L0,1 Z " fill="#000000" transform="translate(195,5)"/>
<path d="M0,0 L2,0 L2,1 L1,1 L1,2 L0,2 L0,3 L-1,3 L-1,4 L-2,4 L-2,5 L-3,5 L-3,6 L-4,6 L-4,4 L-3,4 L-3,3 L-2,3 L-2,2 L-1,2 L-1,1 L0,1 Z " fill="#000000" transform="translate(167,6)"/>
<path d="M0,0 L1,0 L1,1 L0,1 Z " fill="#000000" transform="translate(197,6)"/>
<path d="M0,0 L1,0 L1,1 L0,1 Z " fill="#000000" transform="translate(16,7)"/>
<path d="M0,0 L1,0 L1,1 L0,1 Z " fill="#000000" transform="translate(198,7)"/>
<path d="M0,0 L1,0 L1,1 L0,1 Z " fill="#000000" transform="translate(15,8)"/>
<path d="M0,0 L1,0 L1,1 L0,1 Z " fill="#000000" transform="translate(199,8)"/>
<path d="M0,0 L1,0 L1,1 L0,1 Z " fill="#000000" transform="translate(14,9)"/>
<path d="M0,0 L1,0 L1,1 L0,1 Z " fill="#000000" transform="translate(200,9)"/>
<path d="M0,0 L1,0 L1,1 L0,1 Z " fill="#000000" transform="translate(13,10)"/>
<path d="M0,0 L1,0 L1,1 L0,1 Z " fill="#000000" transform="translate(201,10)"/>
<path d="M0,0 L1,0 L1,1 L0,1 Z " fill="#000000" transform="translate(12,11)"/>
<path d="M0,0 L1,0 L1,1 L2,1 L2,2 L3,2 L3,4 L2,4 L2,3 L1,3 L1,2 L0,2 Z " fill="#000000" transform="translate(202,11)"/>
<path d="M0,0 L1,0 L1,2 L0,2 L0,3 L-1,3 L-1,1 L0,1 Z " fill="#000000" transform="translate(11,12)"/>
<path d="M0,0 L1,0 L1,1 L0,1 Z " fill="#000000" transform="translate(162,12)"/>
<path d="M0,0 L1,0 L1,2 L0,2 L0,3 L-1,3 L-1,1 L0,1 Z " fill="#000000" transform="translate(161,13)"/>
<path d="M0,0 L1,0 L1,2 L0,2 L0,3 L-1,3 L-1,1 L0,1 Z " fill="#000000" transform="translate(9,15)"/>
<path d="M0,0 L1,0 L1,2 L0,2 Z " fill="#000000" transform="translate(205,15)"/>
<path d="M0,0 L1,0 L1,2 L0,2 Z " fill="#000000" transform="translate(159,16)"/>
<path d="M0,0 L1,0 L1,1 L2,1 L2,3 L3,3 L3,6 L2,6 L2,4 L1,4 L1,2 L0,2 Z " fill="#000000" transform="translate(206,17)"/>
<path d="M0,0 L1,0 L1,2 L0,2 Z " fill="#000000" transform="translate(7,18)"/>
<path d="M0,0 L1,0 L1,2 L0,2 Z " fill="#000000" transform="translate(158,18)"/>
<path d="M0,0 L1,0 L1,2 L0,2 Z " fill="#000000" transform="translate(6,20)"/>
<path d="M0,0 L1,0 L1,2 L0,2 Z " fill="#000000" transform="translate(157,20)"/>
<path d="M0,0 L1,0 L1,3 L0,3 Z " fill="#000000" transform="translate(5,22)"/>
<path d="M0,0 L1,0 L1,2 L0,2 Z " fill="#000000" transform="translate(156,22)"/>
<path d="M0,0 L1,0 L1,2 L2,2 L2,5 L3,5 L3,9 L4,9 L4,14 L5,14 L5,33 L4,33 L4,39 L3,39 L3,42 L2,42 L2,38 L3,38 L3,32 L4,32 L4,16 L3,16 L3,10 L2,10 L2,6 L1,6 L1,3 L0,3 Z " fill="#000000" transform="translate(209,23)"/>
<path d="M0,0 L1,0 L1,3 L0,3 Z " fill="#000000" transform="translate(155,24)"/>
<path d="M0,0 L1,0 L1,3 L0,3 L0,6 L-1,6 L-1,2 L0,2 Z " fill="#000000" transform="translate(4,25)"/>
<path d="M0,0 L1,0 L1,4 L0,4 Z " fill="#000000" transform="translate(154,27)"/>
<path d="M0,0 L1,0 L1,5 L0,5 Z " fill="#000000" transform="translate(2,31)"/>
<path d="M0,0 L1,0 L1,4 L0,4 Z " fill="#000000" transform="translate(153,31)"/>
<path d="M0,0 L1,0 L1,23 L0,23 Z " fill="#000000" transform="translate(152,35)"/>
<path d="M0,0 L1,0 L1,22 L0,22 Z " fill="#000000" transform="translate(1,36)"/>
<path d="M0,0 L1,0 L1,4 L2,4 L2,8 L1,8 L1,5 L0,5 Z " fill="#000000" transform="translate(2,58)"/>
<path d="M0,0 L1,0 L1,5 L0,5 Z " fill="#000000" transform="translate(153,58)"/>
<path d="M0,0 L1,0 L1,3 L0,3 Z " fill="#000000" transform="translate(154,63)"/>
<path d="M0,0 L1,0 L1,3 L0,3 Z " fill="#000000" transform="translate(210,65)"/>
<path d="M0,0 L1,0 L1,3 L0,3 Z " fill="#000000" transform="translate(4,66)"/>
<path d="M0,0 L1,0 L1,3 L0,3 Z " fill="#000000" transform="translate(155,66)"/>
<path d="M0,0 L1,0 L1,3 L0,3 L0,5 L-1,5 L-1,2 L0,2 Z " fill="#000000" transform="translate(209,68)"/>
<path d="M0,0 L1,0 L1,2 L0,2 Z " fill="#000000" transform="translate(5,69)"/>
<path d="M0,0 L1,0 L1,3 L0,3 Z " fill="#000000" transform="translate(156,69)"/>
<path d="M0,0 L1,0 L1,2 L2,2 L2,4 L1,4 L1,3 L0,3 Z " fill="#000000" transform="translate(6,71)"/>
<path d="M0,0 L1,0 L1,2 L0,2 Z " fill="#000000" transform="translate(157,72)"/>
<path d="M0,0 L1,0 L1,2 L0,2 Z " fill="#000000" transform="translate(207,73)"/>
<path d="M0,0 L1,0 L1,2 L0,2 Z " fill="#000000" transform="translate(158,74)"/>
<path d="M0,0 L1,0 L1,2 L0,2 Z " fill="#000000" transform="translate(8,75)"/>
<path d="M0,0 L1,0 L1,2 L0,2 L0,4 L-1,4 L-1,5 L-2,5 L-2,3 L-1,3 L-1,1 L0,1 Z " fill="#000000" transform="translate(206,75)"/>
<path d="M0,0 L1,0 L1,1 L2,1 L2,3 L1,3 L1,2 L0,2 Z " fill="#000000" transform="translate(159,76)"/>
<path d="M0,0 L1,0 L1,1 L2,1 L2,3 L1,3 L1,2 L0,2 Z " fill="#000000" transform="translate(9,77)"/>
<path d="M0,0 L1,0 L1,1 L2,1 L2,3 L1,3 L1,2 L0,2 Z " fill="#000000" transform="translate(161,79)"/>
<path d="M0,0 L1,0 L1,1 L0,1 Z " fill="#000000" transform="translate(11,80)"/>
<path d="M0,0 L1,0 L1,1 L0,1 Z " fill="#000000" transform="translate(203,80)"/>
<path d="M0,0 L1,0 L1,1 L2,1 L2,2 L3,2 L3,3 L4,3 L4,4 L5,4 L5,5 L6,5 L6,6 L4,6 L4,5 L3,5 L3,4 L2,4 L2,3 L1,3 L1,2 L0,2 Z " fill="#000000" transform="translate(12,81)"/>
<path d="M0,0 L1,0 L1,2 L0,2 L0,3 L-1,3 L-1,4 L-2,4 L-2,5 L-3,5 L-3,6 L-4,6 L-4,7 L-6,7 L-6,6 L-5,6 L-5,5 L-4,5 L-4,4 L-3,4 L-3,3 L-2,3 L-2,2 L-1,2 L-1,1 L0,1 Z " fill="#000000" transform="translate(202,81)"/>
<path d="M0,0 L1,0 L1,1 L0,1 Z " fill="#000000" transform="translate(163,82)"/>
<path d="M0,0 L1,0 L1,1 L0,1 Z " fill="#000000" transform="translate(164,83)"/>
<path d="M0,0 L1,0 L1,1 L0,1 Z " fill="#000000" transform="translate(165,84)"/>
<path d="M0,0 L1,0 L1,1 L0,1 Z " fill="#000000" transform="translate(166,85)"/>
<path d="M0,0 L1,0 L1,1 L0,1 Z " fill="#000000" transform="translate(167,86)"/>
<path d="M0,0 L1,0 L1,1 L0,1 Z " fill="#000000" transform="translate(18,87)"/>
<path d="M0,0 L2,0 L2,1 L3,1 L3,2 L1,2 L1,1 L0,1 Z " fill="#000000" transform="translate(168,87)"/>
<path d="M0,0 L2,0 L2,1 L0,1 Z " fill="#000000" transform="translate(19,88)"/>
<path d="M0,0 L2,0 L2,1 L1,1 L1,2 L-1,2 L-1,1 L0,1 Z " fill="#000000" transform="translate(194,88)"/>
<path d="M0,0 L2,0 L2,1 L4,1 L4,2 L1,2 L1,1 L0,1 Z " fill="#000000" transform="translate(21,89)"/>
<path d="M0,0 L2,0 L2,1 L0,1 Z " fill="#000000" transform="translate(171,89)"/>
<path d="M0,0 L2,0 L2,1 L0,1 Z " fill="#000000" transform="translate(173,90)"/>
<path d="M0,0 L3,0 L3,1 L0,1 Z " fill="#000000" transform="translate(25,91)"/>
<path d="M0,0 L3,0 L3,1 L1,1 L1,2 L-2,2 L-2,3 L-162,3 L-162,2 L-15,2 L-15,1 L-11,1 L-11,2 L-3,2 L-3,1 L0,1 Z " fill="#000000" transform="translate(190,90)"/>
</svg>
