<?xml version="1.0" encoding="UTF-8"?>
<!-- Generator: visioncortex VTracer 0.6.3 -->
<svg version="1.1" xmlns="http://www.w3.org/2000/svg" width="42" height="41">
<path d="M0,0 L1,0 L1,1 L5,1 L5,2 L7,2 L7,3 L8,3 L8,5 L9,5 L9,6 L11,6 L11,5 L13,5 L13,6 L18,6 L18,5 L21,5 L21,6 L25,6 L25,7 L26,7 L26,8 L27,8 L27,9 L28,9 L28,10 L27,10 L27,11 L26,11 L26,12 L25,12 L25,13 L23,13 L23,14 L12,14 L12,15 L8,15 L8,16 L7,16 L7,17 L5,17 L5,18 L3,18 L3,19 L-2,19 L-2,18 L-4,18 L-4,17 L-5,17 L-5,16 L-6,16 L-6,15 L-7,15 L-7,14 L-8,14 L-8,11 L-9,11 L-9,8 L-8,8 L-8,5 L-7,5 L-7,4 L-6,4 L-6,3 L-5,3 L-5,2 L-3,2 L-3,1 L0,1 Z M0,2 L0,3 L-3,3 L-3,4 L-4,4 L-4,5 L-5,5 L-5,6 L-6,6 L-6,9 L-7,9 L-7,11 L-6,11 L-6,13 L-5,13 L-5,15 L-4,15 L-4,16 L-2,16 L-2,17 L3,17 L3,16 L5,16 L5,15 L6,15 L6,14 L7,14 L7,13 L14,13 L14,12 L23,12 L23,11 L24,11 L24,10 L25,10 L25,9 L24,9 L24,8 L23,8 L23,9 L21,9 L21,8 L20,8 L20,7 L18,7 L18,8 L15,8 L15,9 L14,9 L14,8 L10,8 L10,9 L8,9 L8,7 L7,7 L7,5 L6,5 L6,4 L5,4 L5,3 L2,3 L2,2 Z " fill="#000000" transform="translate(13,11)"/>
<path d="M0,0 L4,0 L4,1 L5,1 L5,4 L4,4 L4,5 L0,5 L0,4 L-1,4 L-1,1 L0,1 Z M1,2 L1,3 L3,3 L3,2 Z " fill="#000000" transform="translate(10,18)"/>
</svg>
