<?xml version="1.0" encoding="UTF-8"?>
<!-- Generator: visioncortex VTracer 0.6.3 -->
<svg version="1.1" xmlns="http://www.w3.org/2000/svg" width="114" height="87">
<path d="M0,0 L102,0 L102,1 L0,1 Z " fill="#000000" transform="translate(6,1)"/>
<path d="M0,0 L2,0 L2,1 L0,1 Z " fill="#000000" transform="translate(4,2)"/>
<path d="M0,0 L2,0 L2,1 L0,1 Z " fill="#000000" transform="translate(108,2)"/>
<path d="M0,0 L1,0 L1,1 L0,1 Z " fill="#000000" transform="translate(3,3)"/>
<path d="M0,0 L1,0 L1,1 L0,1 Z " fill="#000000" transform="translate(110,3)"/>
<path d="M0,0 L1,0 L1,1 L0,1 Z " fill="#000000" transform="translate(2,4)"/>
<path d="M0,0 L1,0 L1,1 L0,1 Z " fill="#000000" transform="translate(111,4)"/>
<path d="M0,0 L1,0 L1,2 L0,2 Z " fill="#000000" transform="translate(1,5)"/>
<path d="M0,0 L1,0 L1,2 L0,2 Z " fill="#000000" transform="translate(112,5)"/>
<path d="M0,0 L1,0 L1,74 L0,74 Z " fill="#000000" transform="translate(0,7)"/>
<path d="M0,0 L1,0 L1,74 L0,74 Z " fill="#000000" transform="translate(113,7)"/>
<path d="M0,0 L73,0 L73,1 L0,1 Z " fill="#000000" transform="translate(16,11)"/>
<path d="M0,0 L2,0 L2,1 L1,1 L1,2 L0,2 Z " fill="#000000" transform="translate(14,12)"/>
<path d="M0,0 L2,0 L2,2 L1,2 L1,1 L0,1 Z " fill="#000000" transform="translate(89,12)"/>
<path d="M0,0 L1,0 L1,58 L0,58 Z " fill="#000000" transform="translate(13,14)"/>
<path d="M0,0 L1,0 L1,58 L0,58 Z " fill="#000000" transform="translate(91,14)"/>
<path d="M0,0 L3,0 L3,2 L4,2 L4,9 L5,9 L5,15 L6,15 L6,22 L7,22 L7,28 L8,28 L8,25 L9,25 L9,21 L10,21 L10,17 L11,17 L11,13 L12,13 L12,12 L13,12 L13,11 L14,11 L14,12 L15,12 L15,14 L16,14 L16,19 L17,19 L17,23 L20,23 L20,22 L28,22 L28,23 L30,23 L30,26 L21,26 L21,27 L20,27 L20,29 L19,29 L19,31 L18,31 L18,32 L15,32 L15,28 L14,28 L14,23 L13,23 L13,25 L12,25 L12,29 L11,29 L11,33 L10,33 L10,37 L9,37 L9,40 L6,40 L6,39 L5,39 L5,34 L4,34 L4,27 L3,27 L3,20 L2,20 L2,14 L1,14 L1,15 L0,15 L0,20 L-1,20 L-1,25 L-2,25 L-2,26 L-15,26 L-15,25 L-16,25 L-16,23 L-14,23 L-14,22 L-4,22 L-4,17 L-3,17 L-3,12 L-2,12 L-2,7 L-1,7 L-1,2 L0,2 Z " fill="#000000" transform="translate(45,23)"/>
<path d="M0,0 L5,0 L5,1 L6,1 L6,2 L7,2 L7,7 L6,7 L6,8 L4,8 L4,9 L0,9 L0,8 L-1,8 L-1,7 L-2,7 L-2,6 L-3,6 L-3,3 L-2,3 L-2,2 L-1,2 L-1,1 L0,1 Z " fill="#000000" transform="translate(99,60)"/>
<path d="M0,0 L1,0 L1,1 L2,1 L2,2 L0,2 Z " fill="#000000" transform="translate(14,72)"/>
<path d="M0,0 L1,0 L1,2 L-1,2 L-1,1 L0,1 Z " fill="#000000" transform="translate(90,72)"/>
<path d="M0,0 L3,0 L3,1 L4,1 L4,2 L6,2 L6,7 L5,7 L5,8 L4,8 L4,9 L-2,9 L-2,8 L-3,8 L-3,6 L-4,6 L-4,4 L-3,4 L-3,2 L-2,2 L-2,1 L0,1 Z " fill="#000000" transform="translate(100,72)"/>
<path d="M0,0 L73,0 L73,1 L0,1 Z " fill="#000000" transform="translate(16,74)"/>
<path d="M0,0 L1,0 L1,2 L0,2 Z " fill="#000000" transform="translate(1,81)"/>
<path d="M0,0 L1,0 L1,2 L0,2 Z " fill="#000000" transform="translate(112,81)"/>
<path d="M0,0 L1,0 L1,1 L0,1 Z " fill="#000000" transform="translate(2,83)"/>
<path d="M0,0 L1,0 L1,1 L0,1 Z " fill="#000000" transform="translate(111,83)"/>
<path d="M0,0 L1,0 L1,1 L0,1 Z " fill="#000000" transform="translate(3,84)"/>
<path d="M0,0 L1,0 L1,1 L0,1 Z " fill="#000000" transform="translate(110,84)"/>
<path d="M0,0 L2,0 L2,1 L0,1 Z " fill="#000000" transform="translate(4,85)"/>
<path d="M0,0 L2,0 L2,1 L0,1 Z " fill="#000000" transform="translate(108,85)"/>
<path d="M0,0 L102,0 L102,1 L0,1 Z " fill="#000000" transform="translate(6,86)"/>
</svg>
