<?xml version="1.0" encoding="UTF-8"?>
<!-- Created with Inkscape (http://www.inkscape.org/) -->
<svg width="22.122mm" height="16.933mm" version="1.1" viewBox="0 0 22.122 16.933" xmlns="http://www.w3.org/2000/svg">
 <g transform="translate(-106.97 -134.32)">
  <g stroke-width=".26458">
   <path d="m121.69 134.32h0.26458v16.669h-0.79375v-0.26458h-0.26458v-0.26459h0.52917v0.26459h0.26458v-15.875h-0.52917v-0.26459h0.52917z"/>
   <path d="m124.07 134.58h5.0271v16.669h-5.0271zm0.26458 0.26458v16.14h4.4979v-16.14z"/>
   <path d="m120.63 134.84h0.52917v0.26458h-0.52917z"/>
   <path d="m120.1 135.11h0.52917v0.26458h-0.52917z"/>
   <path d="m119.57 135.37h0.52917v0.26458h-0.26459v0.26459h-0.52916v0.26458h-0.52917v0.26458h-0.52917v0.26459h-0.52916v-0.26459h0.26458v-0.26458h0.52917v-0.26458h0.52916v-0.26459h0.52917z"/>
   <path d="m117.19 136.7h0.52917v0.26458h-0.52917z"/>
   <path d="m116.66 136.96h0.52917v0.26458h-0.52917z"/>
   <path d="m116.13 137.23h0.52917v0.26458h-0.52917z"/>
   <path d="m115.6 137.49h0.52917v0.26458h-0.52917z"/>
   <path d="m115.34 137.76h0.26458v10.054h-0.26458z"/>
   <path d="m115.6 147.81h0.52917v0.26458h-0.52917z"/>
   <path d="m116.13 148.07h0.52917v0.26458h-0.52917z"/>
   <path d="m116.66 148.34h0.52917v0.26458h-0.52917z"/>
   <path d="m117.19 148.6h0.52917v0.26458h-0.52917z"/>
   <path d="m117.72 148.87h0.52917v0.26458h-0.52917z"/>
   <path d="m118.25 149.13h0.52917v0.26458h-0.52917z"/>
   <path d="m118.78 149.4h0.52917v0.26458h-0.52917z"/>
   <path d="m119.31 149.66h0.52917v0.26458h-0.52917z"/>
   <path d="m119.84 149.93h0.52917v0.26458h-0.52917z"/>
   <path d="m120.37 150.19h0.52917v0.26458h-0.52917z"/>
  </g>
  <path d="m112.27 142.6c-0.0779 2.9e-4 -0.23942 9.2e-4 -0.57031 2e-3 -0.66179 2e-3 -2.0047 6e-3 -4.7285 0.0137l2e-3 0.26367c2.7238-8e-3 4.0667-0.0116 4.7285-0.0137 0.33092-1e-3 0.49036-2e-3 0.56836-2e-3 0.039-1.5e-4 0.0577 4e-5 0.0664 0 2e-3 -1e-5 3e-3 1e-5 4e-3 0 0 0 1e-3 -0.0488 2e-3 -0.0879-2e-4 -0.0191 0-0.043 0-0.043s-2e-3 -0.13282-2e-3 -0.13281c-1.4e-4 0-2e-3 -3e-5 -6e-3 0-8e-3 4e-5 -0.0255-1.5e-4 -0.0645 0zm0.0723 0.17578v0.0879c4.4e-4 -1e-5 2e-3 0 2e-3 0s-2e-3 -0.0488-2e-3 -0.0879z" color="#000000" style="-inkscape-stroke:none"/>
  <g fill-rule="evenodd">
   <path d="m113.57 142.74-1.8269 1.056v-2.112z" color="#000000" stroke-width=".2112pt" style="-inkscape-stroke:none"/>
   <path d="m111.6 141.44v2.5996l2.248-1.2988-0.21093-0.12305zm0.28125 0.48632 1.4043 0.8125-1.4043 0.81446z" color="#000000" style="-inkscape-stroke:none"/>
  </g>
 </g>
</svg>
