<?xml version="1.0" encoding="UTF-8"?>
<!-- Created with Inkscape (http://www.inkscape.org/) -->
<svg width="150.07mm" height="64.32mm" version="1.1" viewBox="0 0 150.07 64.32" xmlns="http://www.w3.org/2000/svg">
 <g transform="translate(-42.38 -106.27)">
  <g stroke-width=".26458">
   <path d="m47.534 114.74c0.36248 5e-3 0.36248 5e-3 0.73554 0.0106 0.24342 0 0.48683 3e-3 0.73554 5e-3 0.18785 3e-3 0.37571 8e-3 0.56885 0.0106 0.08731 0.26194 0.17462 0.52387 0.26458 0.79375 0.29369 0.0344 0.29369 0.0344 0.59267 0.0688 0.87577 0.23283 1.2171 0.55562 1.8389 1.2038 0.17992 0.18257 0.35719 0.36248 0.5424 0.55034 0.92075 1.098 1.061 1.8362 1.0292 3.2702-0.0053 0.28575-0.01058 0.56885-0.01323 0.86254-0.0079 0.21696-0.01323 0.43392-0.02117 0.65881h-0.52917c-0.12965 0.65352-0.12965 0.65352-0.26458 1.3229h-0.52917c-0.06879 0.16933-0.14023 0.33866-0.21431 0.51329-0.31486 0.54504-0.31486 0.54504-1.1086 0.80962-0.08731 0.26194-0.17462 0.52388-0.26458 0.79375h-1.0583v0.52917c-0.52388 0.12965-0.52388 0.12965-1.0583 0.26458v10.848c3.1432 0.0873 6.2865 0.17463 9.525 0.26458 0.08731-2.1828 0.17462-4.3656 0.26458-6.6146h17.727c0.01058 3.1988 0.01058 3.1988 0.01852 6.4664 0.0026 0.67204 0.0053 1.3467 0.0053 2.0426 0.0026 0.53181 0.0026 1.061 0.0026 1.5928 0.0026 0.27782 0.0026 0.55827 0.0053 0.84402v0.79905c0 0.22754 0 0.45772 0.0026 0.69585-0.0344 0.52387-0.0344 0.52387-0.29898 0.78846-0.5424 0.0238-1.0874 0.0318-1.6325 0.0291h-0.51594c-0.56621 0-1.1298-3e-3 -1.696-3e-3 -0.39158-3e-3 -0.78317-3e-3 -1.1748-3e-3 -1.0292 0-2.0611-3e-3 -3.093-5e-3 -1.0504-3e-3 -2.1034-5e-3 -3.1538-5e-3 -2.0664-3e-3 -4.1301-8e-3 -6.1965-0.0132-0.08731-1.9209-0.17462-3.8418-0.26458-5.8208h-9.525v13.494c3.4052 0.0873 6.8104 0.17463 10.319 0.26459v0.52916h-11.112c-0.08731-8.6439-0.17462-17.288-0.26458-26.194-0.6985-0.26193-1.397-0.52387-2.1167-0.79375-0.7276-0.66145-0.7276-0.66145-1.3229-1.3229-0.20108-0.13229-0.40217-0.26194-0.61119-0.39688-0.44714-0.39687-0.44714-0.39687-0.51329-1.1086 0.02381-0.20108 0.04498-0.40481 0.06615-0.61119-0.26194-0.0873-0.52388-0.17462-0.79375-0.26458-0.01323-0.43127-0.02381-0.8599-0.03175-1.2912-0.0079-0.35719-0.0079-0.35719-0.01852-0.72496 0.05027-0.62971 0.05027-0.62971 0.57944-1.1589 0.11642-0.32809 0.11642-0.32809 0.23283-0.66146 0.35719-0.79375 0.59796-0.83608 1.3547-1.1906 0.07673-0.16933 0.15346-0.33866 0.23283-0.51329 0.43656-0.79904 1.0742-0.97631 1.8838-1.3388 0.26458-0.26458 0.26458-0.26458 0.87048-0.29104zm-0.6059 1.0848v0.79375h-1.3229v0.52917h-0.79375v0.79375h-0.52917v1.3229h-0.79375v2.6458h0.79375v1.3229h0.52917v0.52917h0.79375v0.79375h1.3229v0.52917h2.6458v-0.52917h1.3229v-0.79375h0.52917v-0.52917h0.79375v-1.3229h0.52917v-2.6458h-0.52917v-1.3229h-0.79375v-0.79375h-0.52917v-0.52917h-1.3229v-0.79375h-2.6458zm12.965 15.61v0.79375h-0.79375v11.112c2.1325 5e-3 4.2651 0.0106 6.3976 0.0132 0.99219 0 1.987 3e-3 2.9792 5e-3 0.95514 3e-3 1.9103 5e-3 2.8654 5e-3 0.36777 0 0.7329 3e-3 1.098 3e-3 0.508 3e-3 1.0186 3e-3 1.5293 3e-3 0.29104 0 0.58208 3e-3 0.88106 3e-3 0.64029 0.0423 0.64029 0.0423 0.9181-0.29634 0.02646-0.35718 0.03175-0.71702 0.03175-1.0742v-0.69057c-0.0026-0.37041-0.0026-0.37041-0.0053-0.75141v-0.762c-0.0026-0.80963-0.0053-1.6192-0.0079-2.4262-0.0026-0.54769-0.0026-1.0954-0.0053-1.6431-0.0026-1.3414-0.0053-2.6855-0.01323-4.0296-1.0319 0-1.352 0.39688-2.1167 1.0583v-0.52916c0.26194-0.0873 0.52387-0.17463 0.79375-0.26459-0.12964-0.26193-0.12964-0.26193-0.26458-0.52916h-14.288z"/>
   <path d="m153.03 106.3c0.42862-8e-3 0.8599-0.0132 1.2912-0.0159 0.35718-5e-3 0.35718-5e-3 0.72495-0.0106 0.62971 0.0265 0.62971 0.0265 1.1589 0.29104v0.52917c0.26987 8e-3 0.26987 8e-3 0.54504 0.0159 1.1509 0.36778 1.8997 1.1509 2.63 2.1008 0.0926 0.35189 0.18256 0.70379 0.26458 1.0583 0.17463 0.0873 0.34925 0.17462 0.52917 0.26458 0.0132 0.47361 0.0238 0.94721 0.0318 1.4235 8e-3 0.26194 0.0132 0.52652 0.0212 0.79904-0.0529 0.68792-0.0529 0.68792-0.58209 1.2171-0.16933 0.54768-0.16933 0.54768-0.26458 1.0583h-0.52917c-0.0873 0.26194-0.17462 0.52387-0.26458 0.79375h-0.52917v0.52917h-0.52916c-0.0873 0.26193-0.17463 0.52387-0.26459 0.79375-0.9816 0.50535-1.7859 0.60589-2.9104 0.79375v10.848c4.8472 0.13229 4.8472 0.13229 9.7896 0.26459-0.0873 0.17462-0.17463 0.34925-0.26458 0.52916-3.1432 0.0873-6.2865 0.17463-9.525 0.26459v34.66h10.848c0.0873-1.6589 0.17463-3.3179 0.26459-5.0271h11.112v11.112h-11.112c-0.0873-1.6589-0.17463-3.3179-0.26459-5.0271-3.8418-0.0873-7.6835-0.17463-11.642-0.26459-5e-3 -1.4314-0.0106-2.8628-0.0159-4.3392-0.0185-4.7202-0.037-9.4377-0.0608-14.158-0.0132-2.8628-0.0238-5.7256-0.0344-8.5884-8e-3 -2.495-0.0185-4.99-0.0317-7.4824-8e-3 -1.3229-0.0132-2.6432-0.0159-3.9661-5e-3 -1.2436-0.0106-2.4844-0.0185-3.728-3e-3 -0.45773-3e-3 -0.91282-3e-3 -1.3705-3e-3 -0.62178-5e-3 -1.2436-0.0106-1.8653-3e-3 -0.34925-3e-3 -0.6985-5e-3 -1.0583 0.0159-0.83344 0.0159-0.83344-0.59795-1.3335-0.43657-0.18785-0.87842-0.36513-1.3229-0.52917v-0.52916h-0.52917v-0.52917c-0.26193-0.0873-0.52387-0.17463-0.79375-0.26458v-0.52917h-0.52916c-0.082-0.21167-0.16404-0.42598-0.24871-0.64558-0.21696-0.64823-0.21696-0.64823-0.54504-0.94192-0.0185-0.48948-0.0212-0.9816-0.0159-1.4711 3e-3 -0.26723 5e-3 -0.53711 5e-3 -0.81227 5e-3 -0.20638 8e-3 -0.41275 0.0106-0.62707 0.17462-0.0873 0.34925-0.17462 0.52916-0.26458 0.09-0.27781 0.09-0.27781 0.18257-0.56092 0.48948-1.0768 1.2435-1.9156 2.1987-2.6141h1.0583c0.0873-0.26194 0.17462-0.52388 0.26458-0.79375zm0 1.0583v0.79375h-1.3229v0.52917h-0.52916v0.79375h-0.79375v1.3229h-0.52917v2.6458h0.52917v1.3229h0.79375v0.52916h0.52916v0.79375h1.3229v0.52917h2.6458v-0.52917c0.30163 0.0238 0.30163 0.0238 0.61119 0.0503 0.71702 0.0132 0.71702 0.0132 1.1906-0.41539 0.36777-0.41011 0.36777-0.41011 0.31485-0.95779h0.52917v-1.3229h0.79375v-2.6458c-0.17463-0.0873-0.34925-0.17463-0.52917-0.26459-0.16404-0.54504-0.16404-0.54504-0.26458-1.0583h-0.52917v-0.79375h-0.79375v-0.52917c-0.16933-0.0318-0.33867-0.0661-0.51329-0.10054-0.26988-0.0794-0.26988-0.0794-0.54504-0.16404-0.0873-0.17463-0.17463-0.34925-0.26459-0.52917h-2.6458zm13.229 52.917v9.7896h9.525v-9.7896h-9.525z"/>
   <path d="m96.241 120.02h0.85196 0.97102c0.35983 0 0.71702 3e-3 1.0769 3e-3h1.1271c1.0213 0 2.0426 0 3.0665 3e-3 1.0663 3e-3 2.1325 3e-3 3.2015 3e-3 2.0214 0 4.0428 3e-3 6.0669 5e-3 2.2992 3e-3 4.6011 5e-3 6.903 5e-3 4.736 3e-3 9.4721 8e-3 14.208 0.0132 0.29633 1.6642 0.29898 3.2914 0.29369 4.9768v0.93927c0 1.0213-3e-3 2.0426-3e-3 3.0639-3e-3 0.70908-3e-3 1.4182-3e-3 2.1272 0 1.6722-3e-3 3.347-5e-3 5.0191-3e-3 1.9076-5e-3 3.8126-5e-3 5.7203-3e-3 3.9185-8e-3 7.837-0.0132 11.755-4.6858 0.0132-9.3715 0.0238-14.055 0.0291-2.1775 3e-3 -4.3524 5e-3 -6.5273 0.0106-1.8971 5e-3 -3.7941 0.0106-5.6912 0.0106-1.0028 0-2.0055 3e-3 -3.011 5e-3 -0.94456 5e-3 -1.8918 5e-3 -2.839 5e-3 -0.508 0-1.0186 3e-3 -1.5293 5e-3 -1.7462-3e-3 -3.2914-0.13758-4.9768-0.59531-0.19579-8.3053-0.31221-16.6-0.17462-24.908 0.0079-0.55827 0.01852-1.1165 0.02646-1.6748 0.01588-1.0398 0.0344-2.0796 0.05556-3.1194 0.0053-0.31221 0.01058-0.62442 0.01587-0.94721 0.0079-0.42333 0.0079-0.42333 0.01852-0.8546 0.0053-0.24606 0.0079-0.49213 0.01323-0.74877 0.0635-0.79375 0.13494-0.80963 0.93662-0.85196zm0.43127 1.6192c-0.02646 0.38894-0.0344 0.77787-0.0344 1.1668 0 0.25136 0 0.50271-0.0026 0.762 0 0.27781 0.0026 0.55563 0.0026 0.84138 0 0.29104 0 0.58473-0.0026 0.88371 0 0.96837 0 1.9368 0.0026 2.9025-0.0026 0.6694-0.0026 1.3388-0.0026 2.0082 0 1.4049 0 2.8099 0.0026 4.2148v4.8789c-0.0026 1.5637-0.0026 3.1247-0.0026 4.6858v1.9976c0 0.92868 0 1.8574 0.0026 2.7861 0 0.27781-0.0026 0.55827-0.0026 0.84402 0.0026 0.25135 0.0026 0.50271 0.0026 0.762v0.66675c-0.02117 0.50271-0.02117 0.50271 0.29898 0.762 0.45508 0.0265 0.91017 0.0344 1.3652 0.0344 0.4445 0 0.4445 0 0.89694 3e-3 0.32808 0 0.65617-3e-3 0.99219-3e-3 0.34396 0 0.68792 3e-3 1.0398 3e-3h2.8284c0.98425-3e-3 1.9712 0 2.9554 0 1.6536 0 3.3073 0 4.9609-3e-3 1.9156 0 3.8312 0 5.7441 3e-3h4.9239 2.9448c1.0954 0 2.1881 0 3.2808-3e-3 0.32808 0 0.65617 3e-3 0.99219 3e-3 0.29633 0 0.59266-3e-3 0.89958-3e-3h0.78317c0.57414 0.0318 0.57414 0.0318 0.84666-0.29898 0.0265-0.3863 0.0317-0.77523 0.0344-1.1642v-0.762-0.84402-0.88106c3e-3 -0.96838 0-1.9368 0-2.9051v-2.0082c3e-3 -1.4049 0-2.8099 0-4.2148-3e-3 -1.6245-3e-3 -3.2517 0-4.8789 3e-3 -1.561 0-3.1221 0-4.6831v-1.9976c3e-3 -0.93134 0-1.86 0-2.7887v-0.84138-0.762c-3e-3 -0.2196-3e-3 -0.44185-3e-3 -0.66675 0.0212-0.50271 0.0212-0.50271-0.29633-0.76464-0.45508-0.0265-0.91017-0.0318-1.3652-0.0318-0.29633-3e-3 -0.59267-3e-3 -0.89958-3e-3h-0.99219-1.0398c-0.94192-3e-3 -1.8838 0-2.8284 0h-2.9528-4.9636c-1.9129 3e-3 -3.8285 3e-3 -5.7441 0h-4.9239-2.9448c-1.0927-3e-3 -2.1855 0-3.2808 0h-0.99219c-0.29633 0-0.59267 0-0.89694 3e-3h-0.78317c-0.57679-0.0317-0.57679-0.0317-0.84667 0.29633z"/>
   <path d="m118.99 125.84c0.3519 0 0.3519 0 0.71173 3e-3 0.24077 0 0.48154-3e-3 0.7276-3e-3 0.508 0 1.016 0 1.524 3e-3 0.78052 0 1.561 0 2.3416-3e-3 0.49212 0 0.98425 0 1.4764 3e-3 0.23548-3e-3 0.47096-3e-3 0.71173-3e-3 1.6484 5e-3 1.6484 5e-3 1.942 0.30162 0.0238 0.82021 0.0318 1.6351 0.0265 2.4553 0 0.24606 0 0.49477-3e-3 0.74612 0 0.79111-3e-3 1.5822-8e-3 2.3707 0 0.53446-3e-3 1.0689-3e-3 1.6034-3e-3 1.3123-8e-3 2.6247-0.0132 3.937-1.5769 5e-3 -3.1538 0.0106-4.7334 0.0132-0.53711 3e-3 -1.0742 5e-3 -1.6113 5e-3 -0.76993 5e-3 -1.5399 5e-3 -2.3098 8e-3 -0.36248 0-0.36248 0-0.7329 3e-3 -0.57414 0-1.1509-0.0132-1.7251-0.0291-0.508-0.508-0.29898-1.2647-0.30162-1.942 0-0.23548 3e-3 -0.47096 3e-3 -0.71173v-0.7276c-3e-3 -0.508 0-1.016 0-1.524 3e-3 -0.78052 0-1.561-3e-3 -2.3416 3e-3 -0.49213 3e-3 -0.98425 3e-3 -1.4764 0-0.23548-3e-3 -0.47096-3e-3 -0.71173 8e-3 -1.942 0.037-1.9711 1.9791-1.9791zm-0.88371 0.83079c-0.0873 0.43656-0.17462 0.87313-0.26458 1.3229h0.79375v-0.52917h0.52916v-0.79375h-1.0583zm1.5875 0.79375v0.52917h-0.52917v0.52916c-0.26193 0.0873-0.52387 0.17463-0.79374 0.26459-0.62707 0.78052-0.62707 0.78052-0.52917 1.8521h0.79375v-0.52917h0.52916c0.44186-0.35189 0.44186-0.35189 0.79375-0.79375v-0.52916h0.52917c0.44186-0.3519 0.44186-0.3519 0.79375-0.79375v-0.52917h0.52917v-0.79375c-1.1165 0-1.3335 0.0688-2.1167 0.79375zm2.6458 0v0.52917h-0.52916v0.52916c-0.26194 0.0873-0.52388 0.17463-0.79375 0.26459v0.52916h-0.52917v0.52917c-0.26194 0.0873-0.52387 0.17463-0.79375 0.26458v0.52917h-0.52917c-1.1351 1.1139-1.1351 1.1139-1.3229 2.6458h0.79375v-0.52916h0.52916c0.44186-0.3519 0.44186-0.3519 0.79375-0.79375v-0.52917h0.52917c0.44186-0.35189 0.44186-0.35189 0.79375-0.79375v-0.52917h0.52917c0.44185-0.35189 0.44185-0.35189 0.79375-0.79375v-0.52916h0.52916c0.44186-0.3519 0.44186-0.3519 0.79375-0.79375v-0.52917h0.52917v-0.79375c-1.1165 0-1.3335 0.0688-2.1167 0.79375zm2.6458 0v0.52917h-0.52917v0.52916h-0.52917c-0.44185 0.3519-0.44185 0.3519-0.79375 0.79375v0.52917h-0.52916c-0.35719 0.43656-0.71173 0.87842-1.0583 1.3229-0.17462 0.0873-0.34925 0.17462-0.52916 0.26458v0.52917h-0.52917c-0.44979 0.4445-0.44979 0.4445-0.91017 1.0081-0.91016 1.0795-0.91016 1.0795-1.397 1.5081-0.45244 0.44185-0.45244 0.44185-0.33867 1.4526h0.79375v-0.52917h0.52916c0.44186-0.35189 0.44186-0.35189 0.79375-0.79375v-0.52917h0.52917c0.44186-0.35189 0.44186-0.35189 0.79375-0.79375v-0.52916h0.52917c0.44185-0.3519 0.44185-0.3519 0.79375-0.79375v-0.52917h0.52916c0.44186-0.35189 0.44186-0.35189 0.79375-0.79375v-0.52917h0.52917c0.44186-0.35189 0.44186-0.35189 0.79375-0.79375v-0.52916h0.52917c0.44185-0.3519 0.44185-0.3519 0.79375-0.79375v-0.52917h0.52916v-0.79375c-1.1165 0-1.3335 0.0688-2.1167 0.79375zm2.1167 0.52917v0.52916h-0.52916c-0.44186 0.3519-0.44186 0.3519-0.79375 0.79375v0.52917h-0.52917c-0.35454 0.35983-0.35454 0.35983-0.71173 0.8255-0.55562 0.67469-1.1086 1.2515-1.7859 1.8045-0.89958 0.73819-1.6325 1.5716-2.376 2.4659-0.41805 0.46037-0.41805 0.46037-1.2118 0.98954 0.0873 0.26194 0.17463 0.52387 0.26459 0.79375 0.78316-0.1614 1.1589-0.33073 1.8521-0.79375v-0.52917h0.52917c0.44185-0.35189 0.44185-0.35189 0.79375-0.79375v-0.52917h0.52916c0.44186-0.35189 0.44186-0.35189 0.79375-0.79375v-0.52916h0.52917c0.44186-0.3519 0.44186-0.3519 0.79375-0.79375v-0.52917h0.52917c0.44185-0.35189 0.44185-0.35189 0.79375-0.79375v-0.52917h0.52916c0.47361-0.45243 0.47361-0.45243 0.79375-1.0583-0.0582-0.58473-0.0582-0.58473-0.26458-1.0583h-0.52917zm0 2.6458c-0.43391 0.42863-0.43391 0.42863-0.87577 0.97631-0.73289 0.8599-1.487 1.6722-2.2992 2.4633-0.22754 0.23548-0.45772 0.46832-0.6932 0.71173-0.62971 0.61119-0.62971 0.61119-1.4235 1.1404 0.0873 0.26194 0.17462 0.52387 0.26458 0.79375 0.78317-0.1614 1.1589-0.33073 1.8521-0.79375v-0.52917h0.52917c0.44186-0.35189 0.44186-0.35189 0.79375-0.79375v-0.52917h0.52917c0.44185-0.35189 0.44185-0.35189 0.79375-0.79375v-0.52916h0.52916c0.47361-0.45244 0.47361-0.45244 0.79375-1.0583-0.0582-0.58472-0.0582-0.58472-0.26458-1.0583h-0.52917zm0 2.6458c-0.44979 0.45509-0.44979 0.45509-0.91016 1.0239-0.56621 0.68527-0.9869 1.1218-1.7357 1.6219 0.0873 0.26194 0.17463 0.52387 0.26458 0.79375 0.78317-0.1614 1.1589-0.33073 1.8521-0.79375v-0.52917h0.52916c0.47361-0.45244 0.47361-0.45244 0.79375-1.0583-0.0582-0.58473-0.0582-0.58473-0.26458-1.0583h-0.52917zm0 2.6458c0.0873 0.26194 0.17463 0.52387 0.26459 0.79375 0.17462-0.17463 0.34925-0.34925 0.52916-0.52917-0.26193-0.0873-0.52387-0.17462-0.79375-0.26458z"/>
   <path d="m164.14 122.44h17.727c5e-3 2.1325 0.0106 4.2677 0.0159 6.4664 3e-3 0.67468 5e-3 1.3494 8e-3 2.0426 0 0.53181 3e-3 1.0636 3e-3 1.5928 0 0.28046 3e-3 0.55827 3e-3 0.84402v0.79904c3e-3 0.23019 3e-3 0.45773 3e-3 0.69586-0.0318 0.52387-0.0318 0.52387-0.29633 0.78846-0.6059 0.0238-1.2144 0.0291-1.8203 0.0265-0.27252 0-0.27252 0-0.55034-3e-3 -0.58208 0-1.1642-3e-3 -1.7462-8e-3 -0.39423 0-0.78846-3e-3 -1.1827-3e-3 -0.96838-3e-3 -1.9341-8e-3 -2.9025-0.0132 0.13229 3.7994 0.13229 3.7994 0.26458 7.6729h7.4083c0.0873-1.6589 0.17463-3.3179 0.26459-5.0271h11.112v11.112h-11.112c-0.0873-1.6589-0.17463-3.3179-0.26459-5.0271-0.59002-0.0159-1.1774-0.0318-1.7859-0.0476-0.56621-0.0185-1.1351-0.0344-1.7039-0.0503-0.39688-0.0132-0.79111-0.0238-1.188-0.0344-0.56885-0.0132-1.1351-0.0317-1.7039-0.0476-0.34131-0.0106-0.68527-0.0212-1.0372-0.0291-0.78317-0.0556-0.78317-0.0556-1.0478-0.32015-0.0238-0.6059-0.0291-1.2144-0.0265-1.8203 0-0.18257 3e-3 -0.36248 3e-3 -0.55034 0-0.58208 3e-3 -1.1642 8e-3 -1.7462 0-0.39423 3e-3 -0.78846 3e-3 -1.1827 3e-3 -0.96838 8e-3 -1.9341 0.0132-2.9025-0.23019 3e-3 -0.46302 3e-3 -0.70115 5e-3 -0.8546 3e-3 -1.7092 8e-3 -2.5638 8e-3 -0.36777 3e-3 -0.73819 5e-3 -1.1086 8e-3 -0.53181 3e-3 -1.0636 3e-3 -1.5954 5e-3 -0.32015 0-0.6403 3e-3 -0.96838 3e-3 -0.73554-0.0291-0.73554-0.0291-1.0001-0.29369-0.0238-0.38893-0.0318-0.78052-0.0291-1.1721v-0.75406c0-0.26988 3e-3 -0.5424 3e-3 -0.82021 0-0.27517 3e-3 -0.55034 3e-3 -0.83609 0-0.8837 3e-3 -1.7674 8e-3 -2.6511 0-0.59796 3e-3 -1.1959 3e-3 -1.7939 3e-3 -1.4684 8e-3 -2.9395 0.0132-4.408h-0.52917v-0.52917zm1.3229 0.52917c0.17462 0.43656 0.34925 0.87312 0.52916 1.3229h-0.52916v10.583c2.0294 5e-3 4.0587 0.0106 6.0881 0.0132 0.94456 3e-3 1.8891 3e-3 2.8337 8e-3 1.0821 3e-3 2.1643 3e-3 3.2491 5e-3 0.33867 0 0.67998 3e-3 1.0292 3e-3h0.94721c0.27781 3e-3 0.55298 3e-3 0.83873 3e-3 0.61383 0.0397 0.61383 0.0397 0.889-0.29634 0.0238-0.80168 0.0317-1.5981 0.0265-2.3998 0-0.24077-3e-3 -0.47889-3e-3 -0.7276 0-0.76994-3e-3 -1.5425-8e-3 -2.3125 0-0.52123-3e-3 -1.0425-3e-3 -1.5637-3e-3 -1.2832-8e-3 -2.5638-0.0132-3.8444h-0.79375v-0.79375h-15.081zm16.669 15.875c-0.17992 0.50006-0.17992 0.50006-0.26459 1.0583 0.17463 0.17462 0.34925 0.34925 0.52917 0.52917 0.0873-0.26194 0.17462-0.52388 0.26458-0.79375 0.26194-0.0873 0.52388-0.17463 0.79375-0.26459-0.0873-0.17462-0.17462-0.34925-0.26458-0.52916h-1.0583zm1.5055 0.97102c-0.1323 0.13229-0.26194 0.26458-0.39688 0.40216-0.13758 0.127-0.27252 0.254-0.41275 0.3863-0.4445 0.42597-0.4445 0.42597-0.96044 1.1509 8e-3 0.74084 8e-3 0.74084 0.26459 1.3229 0.17462-0.0873 0.34925-0.17463 0.52916-0.26458v-0.52917c0.254-0.10583 0.254-0.10583 0.51329-0.21431 0.63236-0.28575 0.63236-0.28575 0.80963-1.1086 0.3519-0.17727 0.70644-0.35189 1.0583-0.52916 0.0873-0.26194 0.17463-0.52388 0.26459-0.79375 0.26193-0.0873 0.52387-0.17463 0.79375-0.26459-0.0873-0.17462-0.17463-0.34925-0.26459-0.52916-1.1695 0-1.3917 0.1852-2.1987 0.97102zm1.7039 0.93927c-0.127 0.12964-0.254 0.25929-0.38629 0.39158-0.39158 0.39158-0.78846 0.77788-1.188 1.1642l-0.74612 0.74612c-0.22755 0.2249-0.45509 0.45244-0.69057 0.68263-0.54504 0.62971-0.54504 0.62971-0.40216 1.4076 0.0661 0.1905 0.13493 0.381 0.20373 0.57679 0.17462-0.0873 0.34925-0.17462 0.52916-0.26458v-0.52917c0.16934-0.0714 0.33867-0.14287 0.51329-0.21431 0.63236-0.28575 0.63236-0.28575 0.80963-1.1086 0.3519-0.17727 0.70644-0.3519 1.0583-0.52917 0.0873-0.26194 0.17463-0.52388 0.26459-0.79375 0.35189-0.17727 0.70643-0.3519 1.0583-0.52917 0.0873-0.26193 0.17462-0.52387 0.26458-0.79375 0.3519-0.17727 0.70644-0.35189 1.0583-0.52916 0.0873-0.26194 0.17462-0.52388 0.26458-0.79375 0.26194-0.0873 0.52387-0.17463 0.79375-0.26459-0.0873-0.17462-0.17463-0.34925-0.26458-0.52916-1.5558 0-2.069 0.8546-3.1406 1.9103zm3.8497-1.1774c-0.16404 0.15875-0.32808 0.32015-0.50006 0.48419-0.26194 0.26194-0.26194 0.26194-0.52917 0.53181-0.17992 0.17727-0.36248 0.35719-0.54769 0.53975-0.38364 0.381-0.76464 0.762-1.143 1.143-0.58208 0.58473-1.1721 1.1615-1.7621 1.7383-0.37042 0.37042-0.74084 0.73819-1.1112 1.1086-0.17727 0.17198-0.35454 0.3466-0.53711 0.52387-0.44185 0.4498-0.84666 0.87048-1.1933 1.3996-0.0265 0.762-0.0265 0.762 0.26459 1.3229 0.26193-0.1323 0.26193-0.1323 0.52916-0.26459v-0.52916c0.16934-0.0714 0.33867-0.14288 0.51329-0.21432 0.63236-0.28575 0.63236-0.28575 0.80963-1.1086 0.3519-0.17727 0.70644-0.3519 1.0583-0.52917 0.0873-0.26193 0.17463-0.52387 0.26459-0.79375 0.35189-0.17727 0.70643-0.35189 1.0583-0.52916 0.0873-0.26194 0.17462-0.52388 0.26458-0.79375 0.3519-0.17727 0.70644-0.3519 1.0583-0.52917 0.0873-0.26194 0.17462-0.52388 0.26458-0.79375 0.3519-0.17727 0.70644-0.3519 1.0583-0.52917 0.0873-0.26193 0.17463-0.52387 0.26459-0.79375 0.35189-0.17727 0.70643-0.35189 1.0583-0.52916 0.0873-0.26194 0.17462-0.52388 0.26458-0.79375 0.26194-0.0873 0.52388-0.17463 0.79375-0.26459-0.13229-0.26193-0.13229-0.26193-0.26458-0.52916-1.1377 0-1.1906 0-1.9368 0.73289zm2.2013 0.59002c-2.7067 2.7067-5.4134 5.4134-8.2021 8.2021 0.0873 0.17462 0.17462 0.34925 0.26458 0.52916 0.64559-0.0503 0.64559-0.0503 1.3229-0.26458 0.2884-0.51065 0.2884-0.51065 0.52917-1.0583 0.35189-0.17992 0.70379-0.35719 1.0583-0.52917 0.0873-0.26194 0.17462-0.52388 0.26458-0.79375 0.3519-0.17727 0.70644-0.3519 1.0583-0.52917 0.0873-0.26193 0.17462-0.52387 0.26458-0.79375 0.3519-0.17727 0.70644-0.35189 1.0583-0.52916 0.0873-0.26194 0.17463-0.52388 0.26459-0.79375 0.35189-0.17727 0.70643-0.3519 1.0583-0.52917 0.0873-0.26194 0.17462-0.52388 0.26458-0.79375 0.17463-0.0767 0.34925-0.15346 0.52917-0.23283 0.6059-0.2593 0.6059-0.2593 0.7276-0.98955 0.0212-0.20902 0.0423-0.41539 0.0661-0.6297-0.17463-0.0873-0.34925-0.17463-0.52917-0.26459zm0 2.6458-5.5562 5.5562c0.0873 0.17462 0.17463 0.34925 0.26459 0.52916 0.64558-0.0503 0.64558-0.0503 1.3229-0.26458 0.2884-0.51065 0.2884-0.51065 0.52917-1.0583 0.3519-0.17992 0.70379-0.35719 1.0583-0.52917 0.0873-0.26194 0.17463-0.52388 0.26459-0.79375 0.35189-0.17727 0.70643-0.3519 1.0583-0.52917 0.0873-0.26193 0.17462-0.52387 0.26458-0.79375 0.17463-0.0767 0.34925-0.15346 0.52917-0.23283 0.6059-0.25929 0.6059-0.25929 0.7276-0.98954 0.0212-0.20902 0.0423-0.4154 0.0661-0.62971-0.17463-0.0873-0.34925-0.17463-0.52917-0.26458zm0 2.6458c-0.96043 0.96044-1.9209 1.9209-2.9104 2.9104 0.0873 0.17462 0.17462 0.34925 0.26458 0.52916 0.64558-0.0503 0.64558-0.0503 1.3229-0.26458 0.28839-0.51065 0.28839-0.51065 0.52916-1.0583 0.17992-0.082 0.35984-0.16405 0.54504-0.24871 0.16934-0.0926 0.33867-0.18521 0.5133-0.28046 0.21431-0.67733 0.21431-0.67733 0.26458-1.3229-0.17463-0.0873-0.34925-0.17462-0.52917-0.26458zm0 2.6458v0.79375c0.17463-0.17462 0.34925-0.34925 0.52917-0.52916-0.17463-0.0873-0.34925-0.17463-0.52917-0.26459z"/>
   <path d="m59.894 132.23h0.52917v0.52917h-0.52917v-0.52917z"/>
   <path d="m180.02 123.76h0.52917v0.52917h-0.52917v-0.52917z"/>
   <path d="m60.424 132.76c0.26194 0.0873 0.52388 0.17462 0.79375 0.26458v0.52917c-0.26194-0.0873-0.52388-0.17463-0.79375-0.26458v-0.52917z"/>
   <path d="m73.124 132.76h0.52917c-0.08731 0.26194-0.17462 0.52387-0.26458 0.79375-0.08731-0.26194-0.17462-0.52388-0.26458-0.79375z"/>
   <path d="m165.99 124.29c0.26194 0.0873 0.52387 0.17462 0.79375 0.26458v0.52917c-0.26194-0.0873-0.52388-0.17463-0.79375-0.26458v-0.52917z"/>
   <path d="m179.49 124.29h0.52917c-0.0873 0.26194-0.17463 0.52387-0.26459 0.79375h-0.52916c0.0873-0.26194 0.17462-0.52388 0.26458-0.79375z"/>
   <path d="m61.217 133.55h0.52917v0.52917h-0.52917v-0.52917z"/>
   <path d="m72.33 133.55c0.26194 0.0873 0.52388 0.17462 0.79375 0.26458-0.26194 0.0873-0.52388 0.17463-0.79375 0.26459v-0.52917z"/>
   <path d="m166.79 125.08h0.52917v0.52917h-0.52917v-0.52917z"/>
   <path d="m178.69 125.08h0.52917v0.52917h-0.52917v-0.52917z"/>
   <path d="m61.746 134.08c0.26194 0.0873 0.52388 0.17462 0.79375 0.26458v0.52917c-0.26194-0.0873-0.52388-0.17463-0.79375-0.26458v-0.52917z"/>
   <path d="m72.33 134.08c-0.21431 0.51329-0.21431 0.51329-0.52917 1.0583-0.26194 0.0873-0.52388 0.17463-0.79375 0.26459 0-0.52917 0-0.52917 0.36512-0.9578 0.42862-0.36512 0.42862-0.36512 0.95779-0.36512z"/>
   <path d="m167.32 125.61c0.26194 0.0873 0.52387 0.17462 0.79375 0.26458v0.52917c-0.26194-0.0873-0.52388-0.17463-0.79375-0.26458v-0.52917z"/>
   <path d="m178.16 125.61h0.52917c-0.0873 0.26194-0.17463 0.52387-0.26459 0.79375h-0.52916c0.0873-0.26194 0.17462-0.52388 0.26458-0.79375z"/>
   <path d="m62.54 134.87h0.52917v0.52917h-0.52917v-0.52917z"/>
   <path d="m168.11 126.41h0.52917v0.52917h-0.52917v-0.52917z"/>
   <path d="m177.37 126.41h0.52917v0.52917h-0.52917v-0.52917z"/>
   <path d="m63.069 135.4c0.26194 0.0873 0.52388 0.17462 0.79375 0.26458v0.52917c-0.26194-0.0873-0.52388-0.17463-0.79375-0.26458v-0.52917z"/>
   <path d="m168.64 126.94c0.26194 0.0873 0.52387 0.17462 0.79375 0.26458v0.52917c-0.26194-0.0873-0.52388-0.17463-0.79375-0.26458v-0.52917z"/>
   <path d="m176.84 126.94h0.52917c-0.0873 0.26194-0.17463 0.52387-0.26459 0.79375h-0.52916c0.0873-0.26194 0.17462-0.52388 0.26458-0.79375z"/>
   <path d="m63.863 136.2h0.52917v0.52917h-0.52917v-0.52917z"/>
   <path d="m70.478 136.2h0.52917v0.52917h-0.52917v-0.52917z"/>
   <path d="m169.43 127.73h0.52917v0.52917h-0.52917v-0.52917z"/>
   <path d="m176.05 127.73h0.52917v0.52917h-0.52917v-0.52917z"/>
   <path d="m64.392 136.72c0.26194 0.0873 0.52388 0.17462 0.79375 0.26458v0.52917c-0.26194-0.0873-0.52388-0.17463-0.79375-0.26458v-0.52917z"/>
   <path d="m69.949 136.72c0.17462 0.0873 0.34925 0.17462 0.52917 0.26458-0.08731 0.17463-0.17462 0.34925-0.26458 0.52917h-0.52917c0.08731-0.26194 0.17462-0.52388 0.26458-0.79375z"/>
   <path d="m169.96 128.26c0.26194 0.0873 0.52387 0.17462 0.79375 0.26458v0.52917c-0.26194-0.0873-0.52388-0.17463-0.79375-0.26458v-0.52917z"/>
   <path d="m175.52 128.26h0.52917c-0.0873 0.26194-0.17463 0.52387-0.26459 0.79375h-0.52916c0.0873-0.26194 0.17462-0.52388 0.26458-0.79375z"/>
   <path d="m65.186 137.52h0.52917v0.52917h-0.52917v-0.52917z"/>
   <path d="m69.155 137.52h0.52917v0.52917h-0.52917v-0.52917z"/>
   <path d="m170.75 129.05h0.52917v0.52917h-0.52917v-0.52917z"/>
   <path d="m174.72 129.05h0.52917v0.52917h-0.52917v-0.52917z"/>
   <path d="m65.715 138.05c0.26194 0.0873 0.52388 0.17462 0.79375 0.26458v0.52917c-0.26194-0.0873-0.52388-0.17463-0.79375-0.26458v-0.52917z"/>
   <path d="m68.626 138.05c0.17462 0.0873 0.34925 0.17462 0.52917 0.26458-0.08731 0.17463-0.17462 0.34925-0.26458 0.52917h-0.52917c0.08731-0.26194 0.17462-0.52388 0.26458-0.79375z"/>
   <path d="m171.28 129.58c0.26194 0.0873 0.52387 0.17462 0.79375 0.26458v0.52917c-0.26194-0.0873-0.52388-0.17463-0.79375-0.26458v-0.52917z"/>
   <path d="m174.19 129.58h0.52917c-0.0873 0.26194-0.17463 0.52387-0.26459 0.79375h-0.52916c0.0873-0.26194 0.17462-0.52388 0.26458-0.79375z"/>
   <path d="m66.509 138.84h0.52917v0.52917h-0.52917v-0.52917z"/>
   <path d="m67.832 138.84h0.52917v0.52917h-0.52917v-0.52917z"/>
   <path d="m172.08 130.37h0.52917v0.52917h-0.52917v-0.52917z"/>
   <path d="m173.4 130.37h0.52917v0.52917h-0.52917v-0.52917z"/>
   <path d="m67.038 139.37c0.26194 0.0873 0.52388 0.17462 0.79375 0.26458-0.17462 0.17463-0.34925 0.34925-0.52917 0.52917-0.08731-0.26194-0.17462-0.52388-0.26458-0.79375z"/>
   <path d="m172.61 130.9h0.79375c-0.0873 0.26194-0.17463 0.52387-0.26458 0.79375-0.17463-0.0873-0.34925-0.17463-0.52917-0.26458v-0.52917z"/>
   <path d="m59.894 146.78h11.112v11.112h-11.112v-11.112zm0.52917 0.79375v9.525h9.7896v-9.525h-9.7896z"/>
  </g>
  <path d="m90.66 137.79-11.311 2e-3v0.36523l11.311-2e-3z" color="#000000" style="-inkscape-stroke:none"/>
  <g fill-rule="evenodd">
   <path d="m92.345 137.97-2.5255 1.4604-5.16e-4 -2.92z" color="#000000" stroke-width=".292pt" style="-inkscape-stroke:none"/>
   <path d="m89.623 136.18 2e-3 3.5938 3.1094-1.7969-0.29297-0.16797zm0.39062 0.67578 1.9434 1.1211-1.9434 1.123z" color="#000000" style="-inkscape-stroke:none"/>
  </g>
  <path d="m147.71 137.34-11.311 0.0859 4e-3 0.36523 11.309-0.0859z" color="#000000" style="-inkscape-stroke:none"/>
  <g fill-rule="evenodd">
   <path d="m149.4 137.51-2.5148 1.4789-0.0219-2.9199z" color="#000000" stroke-width=".292pt" style="-inkscape-stroke:none"/>
   <path d="m146.66 135.73 0.0273 3.5957 3.0957-1.8203-0.29297-0.16602zm0.39453 0.67187 1.9512 1.1094-1.9336 1.1367z" color="#000000" style="-inkscape-stroke:none"/>
  </g>
 </g>
</svg>
