<?xml version="1.0" encoding="UTF-8"?>
<!-- Created with Inkscape (http://www.inkscape.org/) -->
<svg width="46.038mm" height="12.7mm" version="1.1" viewBox="0 0 46.038 12.7" xmlns="http://www.w3.org/2000/svg">
 <defs>
  <marker id="marker2752-06-80-9" overflow="visible" orient="auto">
   <path transform="scale(.8)" d="m5.77 0-8.65 5v-10z" fill="context-stroke" fill-rule="evenodd" stroke="context-stroke" stroke-width="1pt"/>
  </marker>
 </defs>
 <g transform="translate(-110.42 -96.48)">
  <g stroke-width=".26458">
   <path d="m137.94 100.71h4.7625v4.7625h-4.7625v-4.7625zm0.26458 0.26458v4.2333h4.2333v-4.2333h-4.2333z"/>
   <path d="m144.82 100.71h4.7625v4.7625h-4.7625v-4.7625zm0.26458 0.26458v4.2333h4.2333v-4.2333h-4.2333z"/>
   <path d="m151.69 100.71h4.7625v4.7625h-4.7625v-4.7625zm0.26458 0.26458v4.2333h4.2333v-4.2333h-4.2333z"/>
  </g>
  <g transform="translate(-.52917)" stroke-width=".26458">
   <path d="m118.36 96.48h4.7625v4.7625h-4.7625v-4.7625zm0.26458 0.26458v4.2333h4.2333v-4.2333h-4.2333z"/>
   <path d="m110.95 98.068h4.7625v4.7625h-4.7625v-4.7625zm0.26458 0.26458v4.2333h4.2333v-4.2333h-4.2333z"/>
   <path d="m114.65 104.15h4.7625v5.0271h-4.7625v-5.0271zm0.26458 0.26458v4.4979h4.2333v-4.4979h-4.2333z"/>
  </g>
  <path d="m126.21 103.26c1.8673-1e-3 3.7346-3e-3 5.6019-4e-3" fill="none" marker-end="url(#marker2752-06-80-9)" stroke="#000" stroke-width=".443"/>
 </g>
</svg>
