<?xml version="1.0" encoding="UTF-8"?>
<!-- Created with Inkscape (http://www.inkscape.org/) -->
<svg width="8.0732mm" height="8.2466mm" version="1.1" viewBox="0 0 8.0732 8.2466" xmlns="http://www.w3.org/2000/svg">
 <g transform="translate(-124.89 -132.13)">
  <path d="m127.94 132.23c-0.8735 0.1965-1.6839 0.67593-2.2832 1.4062a0.15 0.15 0 0 0 0.0215 0.21289 0.15 0.15 0 0 0 0.21094-0.0215c1.1124-1.3555 3.0022-1.7818 4.5879-1.0332 1.5857 0.74856 2.4568 2.4789 2.1172 4.1992-0.33963 1.7203-1.8035 2.9884-3.5547 3.0781-1.7512 0.0898-3.3378-1.0226-3.8516-2.6992a0.15 0.15 0 0 0-0.1875-0.0996 0.15 0.15 0 0 0-0.0996 0.1875c0.55362 1.8066 2.2673 3.0069 4.1543 2.9102 1.887-0.0967 3.468-1.4646 3.834-3.3184 0.36597-1.8537-0.57646-3.7207-2.2852-4.5274-0.85434-0.40331-1.7906-0.49142-2.6641-0.29492z" color="#000000" stroke-linecap="round" stroke-linejoin="bevel" style="-inkscape-stroke:none"/>
  <g fill-rule="evenodd">
   <path d="m125.33 134.26 0.19465-1.183 0.92764 0.76125z" color="#000000" stroke-width=".12pt" style="-inkscape-stroke:none"/>
   <path d="m125.47 132.93-0.24023 1.4551 0.13086-0.0469 1.252-0.4707zm0.11328 0.29883 0.71289 0.58594-0.86328 0.32421z" color="#000000" style="-inkscape-stroke:none"/>
  </g>
 </g>
</svg>
