<?xml version="1.0" encoding="UTF-8"?>
<!-- Created with Inkscape (http://www.inkscape.org/) -->
<svg width="39.153mm" height="17.202mm" version="1.1" viewBox="0 0 39.153 17.202" xmlns="http://www.w3.org/2000/svg">
 <defs>
  <marker id="marker2752-1-3" overflow="visible" orient="auto">
   <path transform="scale(.8)" d="m5.77 0-8.65 5v-10z" fill="context-stroke" fill-rule="evenodd" stroke="context-stroke" stroke-width="1pt"/>
  </marker>
  <marker id="marker2752-6-8" overflow="visible" orient="auto">
   <path transform="scale(.8)" d="m5.77 0-8.65 5v-10z" fill="context-stroke" fill-rule="evenodd" stroke="context-stroke" stroke-width="1pt"/>
  </marker>
 </defs>
 <g transform="translate(-107.49 -128.67)">
  <g transform="translate(13.76 -2.0842)" stroke-width=".26458">
   <path d="m110.4 130.75h5.0271v5.0271h-5.0271v-5.0271zm0.26458 0.26458v4.4979h4.4979v-4.4979h-4.4979z"/>
   <path d="m110.4 137.1h5.0271v4.7625h-5.0271v-4.7625zm0.26458 0.26458v4.2333h4.4979v-4.2333h-4.4979z"/>
   <path d="m127.86 137.1h5.0271v4.7625h-5.0271v-4.7625zm0.26458 0.26458v4.2333h4.4979v-4.2333h-4.4979z"/>
   <path d="m110.4 143.19h5.0271v4.7625h-5.0271v-4.7625zm0.26458 0.26458v4.2333h4.4979v-4.2333h-4.4979z"/>
   <path d="m93.734 137.26h5.0271v4.7625h-5.0271v-4.7625zm0.26458 0.26458v4.2333h4.4979v-4.2333h-4.4979z"/>
  </g>
  <path d="m114.34 137.64c1.8673-1e-3 3.7346-3e-3 5.6019-4e-3" fill="none" marker-end="url(#marker2752-1-3)" stroke="#000" stroke-width=".443"/>
  <path d="m131.45 137.49c1.8673-1e-3 3.7346-3e-3 5.6019-4e-3" fill="none" marker-end="url(#marker2752-6-8)" stroke="#000" stroke-width=".443"/>
 </g>
</svg>
