<?xml version="1.0" encoding="UTF-8"?>
<!-- Created with Inkscape (http://www.inkscape.org/) -->
<svg width="62.902mm" height="25.973mm" version="1.1" viewBox="0 0 62.902 25.973" xmlns="http://www.w3.org/2000/svg">
 <defs>
  <marker id="TriangleOutL" overflow="visible" orient="auto">
   <path transform="scale(.8)" d="m5.77 0-8.65 5v-10z" fill="context-stroke" fill-rule="evenodd" stroke="context-stroke" stroke-width="1pt"/>
  </marker>
  <marker id="TriangleOutL-4" overflow="visible" orient="auto">
   <path transform="scale(.8)" d="m5.77 0-8.65 5v-10z" fill="context-stroke" fill-rule="evenodd" stroke="context-stroke" stroke-width="1pt"/>
  </marker>
 </defs>
 <g transform="translate(-99.807 -90.296)">
  <ellipse cx="132.51" cy="102.79" rx="10.55" ry="10.655" fill="none" stroke="#000" stroke-linecap="round" stroke-linejoin="round" stroke-width=".374"/>
  <rect x="119.56" y="90.583" width="42.862" height="25.399" fill="none" stroke="#000" stroke-linecap="round" stroke-linejoin="round" stroke-width=".574"/>
  <g transform="matrix(.69914 0 0 .73313 34.187 27.129)">
   <path d="m97.419 99.457c-0.09262 0.0063-0.28128 0.01765-0.35243 0.02274-0.05958 0.0043-0.11791 0.01947-0.17673 0.03101v7.8171h4.2333v4.2333h8.9958v-8.9958h-8.9958v4.2333h-3.7042zm8.924 3.5848c0.18627 5.6e-4 0.38572 0.0177 0.601 0.0527 0.0582 0.55827 0.0582 0.55831-0.37311 0.96842-0.17463 0.17727-0.34375 0.34899-0.51573 0.51832-0.1905 0.19315-0.37858 0.38109-0.56379 0.56895-0.20373 0.20108-0.39945 0.39436-0.59789 0.59015-0.19842 0.20108-0.39131 0.39699-0.58446 0.59014-0.19315 0.19314-0.38111 0.38059-0.56896 0.56844-0.65882 0.65617-1.2331 1.1115-2.0877 1.4872-0.0371-0.22754-0.0741-0.45006-0.10852-0.67231 0.34132-1.36 0.34128-1.3597 1.3467-2.3704 0.17463-0.16933 0.34432-0.3336 0.51366-0.49764 0.97466-1.0094 1.635-1.808 2.9388-1.804zm-4.6907 0.0527h1.0583v0.52917c-0.35981 0.17992-0.70908 0.35454-1.0583 0.52917zm7.9375 0.52917c0.10848 1.0107 0.09 1.4603-0.50798 2.3017-0.24077 0.24341-0.47617 0.4792-0.709 0.71468-0.25665 0.25929-0.51586 0.52103-0.77514 0.78032-0.41011 0.39952-0.82051 0.80171-1.2227 1.2118-0.26194 0.26988-0.52652 0.53692-0.79375 0.8015-0.12965 0.12965-0.25644 0.25437-0.38344 0.38137-0.24342 0.24077-0.47921 0.47353-0.71468 0.70901-0.84138 0.598-1.291 0.61645-2.3017 0.50797 0.25135-0.9472 0.25139-0.94705 1.0346-1.6376 0.22754-0.22754 0.22779-0.22792 0.45269-0.44752 0.30956-0.31221 0.62165-0.62417 0.93121-0.93638 0.49477-0.48948 0.98943-0.98162 1.4816-1.4764 0.32014-0.32279 0.64046-0.64569 0.96325-0.96583 0.15611-0.15611 0.30697-0.30705 0.46043-0.45786 0.15081-0.15346 0.29885-0.30136 0.44701-0.45217 0.53975-0.53181 0.84126-1.0346 1.6376-1.0346zm-0.3576 4.209c0.0935-1e-3 0.20681 0.01 0.3576 0.0243 0.0344 0.23548 0.0664 0.46544 0.10077 0.69298-0.12171 1.0954-0.43667 1.4604-1.2304 2.1854-0.68526 0.4445-1.2542 0.4104-2.0454 0.29663-0.0582-0.60325-0.0584-0.60349 0.56069-1.1591 0.24606-0.24871 0.48729-0.48689 0.7307-0.72502 0.24606-0.24871 0.48426-0.48942 0.72503-0.73019 0.41671-0.46434 0.52044-0.5805 0.80098-0.58497z" stroke-width=".26458"/>
   <circle cx="97.068" cy="96.772" r="2.9217" fill="none" stroke="#000" stroke-linecap="round" stroke-linejoin="round" stroke-width=".574"/>
  </g>
  <g transform="translate(58.521 -3.8309)">
   <path transform="matrix(.26458 0 0 .26458 33.22 89.573)" d="m137.08 48.248v4.7031c0.0304 0.01823 0.0371 0.03578 0 0.04883v3.1504c2e-3 0.0047 2e-3 0.0093 4e-3 0.01563l2e-3 -2e-3c5.2e-4 0.0041-4.3e-4 0.0088 0 0.01367 1e-4 0.0011 3.9e-4 0.0029 0 0.0039-3e-3 0.0081-4e-3 0.0117-6e-3 0.01563v0.08789c0.0231 0.03383 0.0391 0.08279 0.0391 0.14648v2.2363c0 0.09623 2e-5 0.19287 0 0.28906-1e-5 0.06936-1.5e-4 0.13771 0 0.20703-1e-5 0.03073-6e-4 0.06118 0 0.0918 2e-3 0.03949 1e-3 0.07422-4e-3 0.11133l2e-3 -2e-3c7e-5 5.72e-4 1.8e-4 0.0043 0 0.0059 0.0171 0.03686 0.0315 0.07589 0.0273 0.11719v0.74219c1e-5 0.02544 5e-5 0.05085 0 0.07617 0 0.0474 3.5e-4 0.09323 0 0.14062-2.3e-4 0.02128-8.8e-4 0.04329 2e-3 0.06445-2e-3 0.03541-2e-3 0.03521-8e-3 0.05664 0.0337 0.06358 0.0364 0.12039 0.0332 0.19531v0.33789c0 0.08402 1e-5 0.1679 0 0.25195-2e-5 0.10303-1e-5 0.20553 0 0.30859 0 0.06055-1.6e-4 0.12109 0 0.18164 1e-3 0.04634 1e-3 0.09233-2e-3 0.13867-7.6e-4 0.06429 0.0267 0.1287-8e-3 0.19141-4e-3 0.0098-8e-3 0.01947-0.0117 0.0293-2e-3 -0.0011-4e-3 -0.0058-6e-3 -0.0039-8e-3 0.01002 6e-3 0.07548 0 0.08984v0.07813c0 0.02649 1e-5 0.05362 0 0.08008v0.17774c8.8e-4 0.03318 7.9e-4 0.06635-2e-3 0.09961-7.5e-4 0.02971 8e-3 0.05728 8e-3 0.08789-3.5e-4 0.03176-3e-3 0.05155-8e-3 0.06641 0.0371 6.1921-0.0625 12.814-0.0625 19.369h34v-34zm0.0371 11.123-2e-3 -2e-3c-1e-3 0.01179-4e-3 0.02449-6e-3 0.03711-8.3e-4 0.0064 7e-3 -0.02405 8e-3 -0.03516zm19.691-9.3223c0.70401 0.0021 1.4578 0.06694 2.2715 0.19922 0.21997 2.11 0.21999 2.1101-1.4102 3.6602-0.66002 0.67-1.2992 1.319-1.9492 1.959-0.72 0.72998-1.4309 1.4404-2.1309 2.1504-0.77001 0.75999-1.5098 1.4905-2.2598 2.2305-0.74993 0.75999-1.479 1.5005-2.209 2.2305-0.73002 0.72998-1.4404 1.4385-2.1504 2.1484-2.49 2.48-4.6606 4.2011-7.8906 5.6211-0.14022-0.85999-0.28006-1.701-0.41015-2.541 1.29-5.14 1.2899-5.139 5.0898-8.959 0.66002-0.63999 1.3014-1.2609 1.9414-1.8809 3.6838-3.815 6.1795-6.8334 11.107-6.8184zm-17.729 0.19922h4v2c-1.3599 0.68001-2.68 1.34-4 2zm30 2c0.41001 3.82 0.34016 5.5192-1.9199 8.6992-0.91 0.91997-1.7997 1.8112-2.6797 2.7012-0.97001 0.97996-1.95 1.9692-2.9297 2.9492-1.55 1.51-3.1011 3.0301-4.6211 4.5801-0.99001 1.02-1.99 2.0293-3 3.0293-0.49001 0.49002-0.96922 0.96141-1.4492 1.4414-0.92001 0.90997-1.8112 1.7897-2.7012 2.6797-3.18 2.2602-4.8792 2.3299-8.6992 1.9199 0.94999-3.58 0.95015-3.5794 3.9102-6.1895 0.85999-0.85999 0.86092-0.86145 1.7109-1.6914 1.17-1.18 2.3495-2.3591 3.5195-3.5391 1.87-1.85 3.7396-3.7101 5.5996-5.5801 1.21-1.22 2.4206-2.4404 3.6406-3.6504 0.59002-0.59002 1.1602-1.1605 1.7402-1.7305 0.56999-0.58001 1.1295-1.139 1.6894-1.709 2.04-2.01 3.1796-3.9102 6.1894-3.9102zm-32.723 1.5469c-3e-3 0.0015-5e-3 0.0027-8e-3 0.0039 5e-5 0.0019 2e-3 4e-3 2e-3 0.0059 2e-3 -0.0032 4e-3 -0.0068 6e-3 -0.0098zm-0.19532 1.3223c-4.7e-4 0.0018 4.7e-4 4e-3 0 0.0059 1e-3 -5.99e-4 3e-3 -0.0013 4e-3 -2e-3 -1e-3 -0.0013-3e-3 -0.0026-4e-3 -0.0039zm0.42383 0.36914c-2e-3 0.0054-4e-3 0.01029-6e-3 0.01563 3e-3 -8.41e-4 4e-3 -0.0013 6e-3 -2e-3v-0.0098c-4e-5 -0.0012 1.4e-4 -0.0027 0-0.0039zm0.49609 0.65234c7.3e-4 0.0014 2e-3 0.0034 4e-3 0.0078 5.1e-4 0.0055 4e-5 8e-3 0 0.0098-1e-3 -0.0075-3e-3 -0.01445-4e-3 -0.01758zm-0.81054 1.0586c-1e-3 4e-3 -3e-3 0.0078-4e-3 0.01172 2e-3 6.16e-4 4e-3 0.0014 6e-3 2e-3 -5.3e-4 -0.0046-5.5e-4 -0.0089-2e-3 -0.01367zm0.83008 2.1445c2e-3 0.0038 4e-3 0.0079 6e-3 0.01172-5.6e-4 -0.0026 1.6e-4 -0.0052-2e-3 -0.0078-4.6e-4 -0.0017-5e-3 -0.0055-4e-3 -0.0039zm0.0273 1.1934c-2e-3 -5.31e-4 -6e-3 -1e-3 -0.01 2e-3 7e-3 0.0098 0.0125 0.01803 0.0176 0.02734 2e-3 -0.01384 1e-3 -0.02753-8e-3 -0.0293zm-0.83594 0.44336c-3e-3 0.0051-5e-3 0.01022-8e-3 0.01563-2e-3 0.0052-5e-3 9e-3 -8e-3 0.01367-2e-5 0.0013-9e-5 0.0025 0 0.0039 6.7e-4 0.0023 2e-3 0.0058 0 0.0059-4e-5 0.0023 5e-5 0.0039 0 0.0059 5e-3 -0.01498 0.0103-0.02994 0.0156-0.04492zm-0.043 0.06836c-2e-3 0.0021-4e-3 4e-3 -6e-3 0.0059 3e-3 9.25e-4 5e-3 0.0014 8e-3 2e-3 -6e-4 -0.0027-5.9e-4 -0.0054-2e-3 -0.0078zm0.48047 2.3203v0.0078l2e-3 2e-3c-1e-3 -0.0035-2e-3 -0.0067-2e-3 -0.0098zm30.998 4.7891c0.35339-0.0038 0.78165 0.03775 1.3516 0.0918 0.13002 0.89 0.25096 1.7591 0.38086 2.6191-0.46001 4.14-1.6504 5.5198-4.6504 8.2598-2.59 1.68-4.7404 1.5511-7.7305 1.1211-0.21997-2.28-0.22073-2.2809 2.1191-4.3809 0.92999-0.94001 1.8418-1.8402 2.7617-2.7402 0.92999-0.94001 1.8302-1.8498 2.7402-2.7598 1.575-1.755 1.967-2.194 3.0273-2.2109zm-37.717 5.0742c-0.0407 0.33963-0.0745 0.46424 0 0z"/>
  </g>
  <path d="m113.36 102.83 11.566-0.0237" fill="none" marker-end="url(#TriangleOutL)" stroke="#000" stroke-width=".42333"/>
  <path d="m139.18 102.95 6.5304-0.0289" fill="none" marker-end="url(#TriangleOutL-4)" stroke="#000" stroke-width=".35136"/>
  <g transform="matrix(.69914 0 0 .73313 81.955 26.753)">
   <path d="m97.419 99.457c-0.09262 0.0063-0.28128 0.01765-0.35243 0.02274-0.05958 0.0043-0.11791 0.01947-0.17673 0.03101v7.8171h4.2333v4.2333h8.9958v-8.9958h-8.9958v4.2333h-3.7042zm8.924 3.5848c0.18627 5.6e-4 0.38572 0.0177 0.601 0.0527 0.0582 0.55827 0.0582 0.55831-0.37311 0.96842-0.17463 0.17727-0.34375 0.34899-0.51573 0.51832-0.1905 0.19315-0.37858 0.38109-0.56379 0.56895-0.20373 0.20108-0.39945 0.39436-0.59789 0.59015-0.19842 0.20108-0.39131 0.39699-0.58446 0.59014-0.19315 0.19314-0.38111 0.38059-0.56896 0.56844-0.65882 0.65617-1.2331 1.1115-2.0877 1.4872-0.0371-0.22754-0.0741-0.45006-0.10852-0.67231 0.34132-1.36 0.34128-1.3597 1.3467-2.3704 0.17463-0.16933 0.34432-0.3336 0.51366-0.49764 0.97466-1.0094 1.635-1.808 2.9388-1.804zm-4.6907 0.0527h1.0583v0.52917c-0.35981 0.17992-0.70908 0.35454-1.0583 0.52917zm7.9375 0.52917c0.10848 1.0107 0.09 1.4603-0.50798 2.3017-0.24077 0.24341-0.47617 0.4792-0.709 0.71468-0.25665 0.25929-0.51586 0.52103-0.77514 0.78032-0.41011 0.39952-0.82051 0.80171-1.2227 1.2118-0.26194 0.26988-0.52652 0.53692-0.79375 0.8015-0.12965 0.12965-0.25644 0.25437-0.38344 0.38137-0.24342 0.24077-0.47921 0.47353-0.71468 0.70901-0.84138 0.598-1.291 0.61645-2.3017 0.50797 0.25135-0.9472 0.25139-0.94705 1.0346-1.6376 0.22754-0.22754 0.22779-0.22792 0.45269-0.44752 0.30956-0.31221 0.62165-0.62417 0.93121-0.93638 0.49477-0.48948 0.98943-0.98162 1.4816-1.4764 0.32014-0.32279 0.64046-0.64569 0.96325-0.96583 0.15611-0.15611 0.30697-0.30705 0.46043-0.45786 0.15081-0.15346 0.29885-0.30136 0.44701-0.45217 0.53975-0.53181 0.84126-1.0346 1.6376-1.0346zm-0.3576 4.209c0.0935-1e-3 0.20681 0.01 0.3576 0.0243 0.0344 0.23548 0.0664 0.46544 0.10077 0.69298-0.12171 1.0954-0.43667 1.4604-1.2304 2.1854-0.68526 0.4445-1.2542 0.4104-2.0454 0.29663-0.0582-0.60325-0.0584-0.60349 0.56069-1.1591 0.24606-0.24871 0.48729-0.48689 0.7307-0.72502 0.24606-0.24871 0.48426-0.48942 0.72503-0.73019 0.41671-0.46434 0.52044-0.5805 0.80098-0.58497z" stroke-width=".26458"/>
   <circle cx="97.068" cy="96.772" r="2.9217" fill="none" stroke="#000" stroke-linecap="round" stroke-linejoin="round" stroke-width=".574"/>
  </g>
 </g>
</svg>
