<?xml version="1.0" encoding="UTF-8"?>
<!-- Generator: visioncortex VTracer 0.6.3 -->
<svg version="1.1" xmlns="http://www.w3.org/2000/svg" width="121" height="55">
<path d="M0,0 L42,0 L42,14 L48,14 L48,7 L49,7 L49,5 L50,5 L50,8 L49,8 L49,14 L57,14 L57,11 L59,11 L59,12 L62,12 L62,13 L64,13 L64,14 L66,14 L66,15 L64,15 L64,16 L61,16 L61,17 L58,17 L58,18 L57,18 L57,15 L49,15 L49,41 L50,41 L50,42 L49,42 L49,46 L50,46 L50,49 L49,49 L49,47 L48,47 L48,15 L42,15 L42,38 L44,38 L44,44 L42,44 L42,54 L0,54 L0,42 L-10,42 L-10,47 L-11,47 L-11,48 L-12,48 L-12,47 L-14,47 L-14,46 L-17,46 L-17,45 L-19,45 L-19,44 L-22,44 L-22,43 L-25,43 L-25,42 L-27,42 L-27,41 L-25,41 L-25,40 L-22,40 L-22,39 L-19,39 L-19,38 L-17,38 L-17,37 L-14,37 L-14,36 L-10,36 L-10,41 L0,41 Z M1,1 L1,41 L21,41 L21,42 L1,42 L1,53 L41,53 L41,44 L40,44 L40,43 L37,43 L37,42 L35,42 L35,41 L36,41 L36,40 L38,40 L38,39 L41,39 L41,15 L34,15 L34,14 L41,14 L41,1 Z " fill="#000000" transform="translate(30,1)"/>
<path d="M0,0 L28,0 L28,1 L30,1 L30,2 L27,2 L27,1 L1,1 L1,2 L-2,2 L-2,1 L0,1 Z " fill="#000000" transform="translate(85,1)"/>
<path d="M0,0 L1,0 L1,1 L0,1 Z " fill="#000000" transform="translate(82,3)"/>
<path d="M0,0 L1,0 L1,1 L0,1 Z " fill="#000000" transform="translate(115,3)"/>
<path d="M0,0 L1,0 L1,1 L0,1 Z " fill="#000000" transform="translate(81,4)"/>
<path d="M0,0 L1,0 L1,1 L0,1 Z " fill="#000000" transform="translate(116,4)"/>
<path d="M0,0 L1,0 L1,1 L0,1 Z " fill="#000000" transform="translate(80,5)"/>
<path d="M0,0 L1,0 L1,1 L0,1 Z " fill="#000000" transform="translate(117,5)"/>
<path d="M0,0 L1,0 L1,2 L2,2 L2,42 L1,42 L1,44 L0,44 L0,41 L1,41 L1,3 L0,3 Z " fill="#000000" transform="translate(118,6)"/>
<path d="M0,0 L2,0 L2,1 L5,1 L5,2 L8,2 L8,3 L10,3 L10,4 L13,4 L13,5 L16,5 L16,7 L13,7 L13,8 L10,8 L10,9 L8,9 L8,10 L5,10 L5,11 L2,11 L2,12 L0,12 Z " fill="#000000" transform="translate(36,9)"/>
<path d="M0,0 L1,0 L1,1 L0,1 Z " fill="#000000" transform="translate(80,41)"/>
<path d="M0,0 L3,0 L3,1 L0,1 Z " fill="#000000" transform="translate(86,41)"/>
<path d="M0,0 L3,0 L3,1 L0,1 Z " fill="#000000" transform="translate(94,41)"/>
<path d="M0,0 L1,0 L1,1 L0,1 Z " fill="#000000" transform="translate(80,50)"/>
<path d="M0,0 L1,0 L1,1 L0,1 Z " fill="#000000" transform="translate(117,50)"/>
<path d="M0,0 L1,0 L1,1 L0,1 Z " fill="#000000" transform="translate(81,51)"/>
<path d="M0,0 L1,0 L1,1 L0,1 Z " fill="#000000" transform="translate(116,51)"/>
<path d="M0,0 L1,0 L1,1 L0,1 Z " fill="#000000" transform="translate(82,52)"/>
<path d="M0,0 L1,0 L1,1 L0,1 Z " fill="#000000" transform="translate(115,52)"/>
<path d="M0,0 L3,0 L3,1 L29,1 L29,0 L32,0 L32,1 L30,1 L30,2 L2,2 L2,1 L0,1 Z " fill="#000000" transform="translate(83,53)"/>
</svg>
